HIERARCHY
ROOT Hips
{
  OFFSET 0.0000 0.0000 0.0000
  CHANNELS 6 Xposition Yposition Zposition Zrotation Xrotation Yrotation
  JOINT Spine
  {
    OFFSET 0.0000 12.0000 0.0000
    CHANNELS 3 Zrotation Xrotation Yrotation
    JOINT Spine1
    {
      OFFSET 0.0000 12.0000 0.0000
      CHANNELS 3 Zrotation Xrotation Yrotation
      JOINT Neck
      {
        OFFSET 0.0000 6.0000 0.0000
        CHANNELS 3 Zrotation Xrotation Yrotation
        JOINT Head
        {
          OFFSET 0.0000 8.0000 0.0000
          CHANNELS 3 Zrotation Xrotation Yrotation
          End Site
          {
            OFFSET 0.0000 10.0000 0.0000
          }
        }
      }
      JOINT LeftArm
      {
        OFFSET 15.0000 0.0000 0.0000
        CHANNELS 3 Zrotation Xrotation Yrotation
        JOINT LeftForeArm
        {
          OFFSET 25.0000 0.0000 0.0000
          CHANNELS 3 Zrotation Xrotation Yrotation
          JOINT LeftHand
          {
            OFFSET 22.0000 0.0000 0.0000
            CHANNELS 3 Zrotation Xrotation Yrotation
            End Site
            {
              OFFSET 10.0000 0.0000 0.0000
            }
          }
        }
      }
      JOINT RightArm
      {
        OFFSET -15.0000 0.0000 0.0000
        CHANNELS 3 Zrotation Xrotation Yrotation
        JOINT RightForeArm
        {
          OFFSET -25.0000 0.0000 0.0000
          CHANNELS 3 Zrotation Xrotation Yrotation
          JOINT RightHand
          {
            OFFSET -22.0000 0.0000 0.0000
            CHANNELS 3 Zrotation Xrotation Yrotation
            End Site
            {
              OFFSET -10.0000 0.0000 0.0000
            }
          }
        }
      }
    }
  }
  JOINT LeftUpLeg
  {
    OFFSET 10.0000 0.0000 0.0000
    CHANNELS 3 Zrotation Xrotation Yrotation
    JOINT LeftLeg
    {
      OFFSET 0.0000 -43.0000 0.0000
      CHANNELS 3 Zrotation Xrotation Yrotation
      JOINT LeftFoot
      {
        OFFSET 0.0000 -40.0000 0.0000
        CHANNELS 3 Zrotation Xrotation Yrotation
        End Site
        {
          OFFSET 0.0000 -5.0000 5.0000
        }
      }
    }
  }
  JOINT RightUpLeg
  {
    OFFSET -10.0000 0.0000 0.0000
    CHANNELS 3 Zrotation Xrotation Yrotation
    JOINT RightLeg
    {
      OFFSET 0.0000 -43.0000 0.0000
      CHANNELS 3 Zrotation Xrotation Yrotation
      JOINT RightFoot
      {
        OFFSET 0.0000 -40.0000 0.0000
        CHANNELS 3 Zrotation Xrotation Yrotation
        End Site
        {
          OFFSET 0.0000 -5.0000 5.0000
        }
      }
    }
  }
}
MOTION
Frames: 9
Frame Time: 0.041667
-0.2873 -7.2227 -0.0384 142.2356 5.7365 84.2683 -0.0000 0.0000 0.0000 -0.0000 0.0000 0.0000 46.7469 6.0476 -2.6157 -0.0000 0.0000 0.0000 91.7124 -29.2183 -28.3931 -45.8783 -25.2742 55.8257 -0.0000 0.0000 0.0000 -95.6014 -18.8553 17.1239 -22.4186 4.0500 -20.2324 -0.0000 0.0000 0.0000 131.3971 -35.3228 70.3774 -156.5418 30.7352 105.8633 -0.0000 0.0000 0.0000 159.5616 -26.0066 104.0454 -160.7120 54.8256 143.7179 -0.0000 0.0000 0.0000
-0.3068 -7.2080 -0.0584 136.5303 2.8826 86.3748 -0.0000 0.0000 0.0000 -0.0000 0.0000 0.0000 38.2688 5.7855 -2.0088 -0.0000 0.0000 0.0000 85.0554 -23.2793 -25.3153 -46.1681 -10.2263 23.7133 -0.0000 0.0000 0.0000 -88.5353 -23.8956 24.4960 -27.4896 4.0876 -16.6011 -0.0000 0.0000 0.0000 99.2314 -44.1901 51.0268 -120.2085 43.0022 68.8369 -0.0000 0.0000 0.0000 160.9076 -28.5346 113.0435 -169.7354 50.8399 158.5967 -0.0000 0.0000 0.0000
-0.3242 -7.1898 -0.0699 132.1214 -0.5136 86.5315 -0.0000 0.0000 0.0000 -0.0000 0.0000 0.0000 33.2875 5.8712 -1.7566 -0.0000 0.0000 0.0000 83.7138 -19.4517 -21.6614 -37.0135 -3.1011 9.2468 -0.0000 0.0000 0.0000 -84.8239 -25.1254 27.4183 -26.8822 3.3267 -13.8558 -0.0000 0.0000 0.0000 89.1463 -47.4167 46.7913 -79.8366 45.2429 38.4413 -0.0000 0.0000 0.0000 163.9500 -31.7710 127.2913 177.6531 47.3733 -174.6533 -0.0000 0.0000 0.0000
-0.3394 -7.1682 -0.0730 128.7245 -4.5148 85.1225 -0.0000 0.0000 0.0000 -0.0000 0.0000 0.0000 31.4409 6.5092 -1.8340 -0.0000 0.0000 0.0000 85.9616 -16.8841 -18.0984 -30.8443 -1.2547 4.5461 -0.0000 0.0000 0.0000 -84.1836 -24.5426 27.0774 -24.4444 3.1666 -14.5439 -0.0000 0.0000 0.0000 94.1251 -50.6206 53.8842 -66.3982 47.7904 32.3344 -0.0000 0.0000 0.0000 169.3062 -35.6148 147.5101 163.0829 41.3380 -136.9714 -0.0000 0.0000 0.0000
-0.3481 -7.1307 -0.0698 124.8726 -8.2196 82.3074 -0.0000 0.0000 0.0000 -0.0000 0.0000 0.0000 30.8786 8.1698 -2.2599 -0.0000 0.0000 0.0000 90.9969 -14.3078 -14.0635 -25.0868 -1.0601 4.7619 -0.0000 0.0000 0.0000 -86.9470 -20.7379 21.8467 -20.2355 3.2705 -18.1787 -0.0000 0.0000 0.0000 112.8956 -54.9366 76.1841 -86.8320 63.3353 60.5388 -0.0000 0.0000 0.0000 179.0128 -42.5017 177.4618 149.8394 29.4113 -88.4918 -0.0000 0.0000 0.0000
-0.3729 -7.1222 -0.0516 124.0493 -14.1590 78.3408 -0.0000 0.0000 0.0000 -0.0000 0.0000 0.0000 34.9631 12.8345 -4.0574 -0.0000 0.0000 0.0000 95.0552 -14.0517 -12.8740 -17.8113 -1.5897 10.1194 -0.0000 0.0000 0.0000 -84.1774 -17.6646 19.5229 -15.5060 3.2034 -23.2123 -0.0000 0.0000 0.0000 143.5540 -53.2304 113.3888 -161.0572 64.5179 150.3887 -0.0000 0.0000 0.0000 -165.1007 -45.9218 -145.6961 146.9331 13.0502 -42.1446 -0.0000 0.0000 0.0000
-0.4007 -7.1226 -0.0347 124.6189 -22.1171 73.1879 -0.0000 0.0000 0.0000 -0.0000 0.0000 0.0000 41.4397 16.9510 -6.4523 -0.0000 0.0000 0.0000 99.8288 -16.5195 -13.9317 -14.1136 -2.2793 18.2591 -0.0000 0.0000 0.0000 -82.5324 -18.7453 21.3064 -8.8497 2.5927 -32.6020 -0.0000 0.0000 0.0000 165.6429 -51.7032 150.8579 160.2714 50.4998 -139.5230 -0.0000 0.0000 0.0000 -151.7600 -50.6760 -124.0407 149.1109 6.3209 -22.6040 -0.0000 0.0000 0.0000
-0.4354 -7.1426 -0.0160 126.2500 -32.4854 71.2930 -0.0000 0.0000 0.0000 -0.0000 0.0000 0.0000 40.2653 18.6119 -6.8754 -0.0000 0.0000 0.0000 102.0397 -19.9216 -16.1768 -8.0786 -1.2259 17.2298 -0.0000 0.0000 0.0000 -77.0054 -20.7746 25.9517 -3.1249 0.9394 -33.4548 -0.0000 0.0000 0.0000 -174.9698 -48.8194 -168.9432 141.1355 33.7921 -81.4564 -0.0000 0.0000 0.0000 -144.3600 -51.0217 -112.0712 139.5084 16.4305 -42.7539 -0.0000 0.0000 0.0000
-0.4652 -7.1637 -0.0071 127.5864 -37.4251 70.4675 -0.0000 0.0000 0.0000 -0.0000 0.0000 0.0000 38.5640 18.5868 -6.5529 -0.0000 0.0000 0.0000 100.9139 -20.8867 -17.3048 -6.3110 -0.9205 16.5814 -0.0000 0.0000 0.0000 -70.6844 -22.2867 31.0472 -1.3421 0.3833 -31.8744 -0.0000 0.0000 0.0000 -174.6559 -49.0818 -168.3276 134.9032 32.0510 -69.3490 -0.0000 0.0000 0.0000 -140.6357 -49.1711 -103.9629 137.0576 58.2466 -109.5559 -0.0000 0.0000 0.0000
